<svg width="32" height="32" viewBox="0 0 32 32" fill="none" xmlns="http://www.w3.org/2000/svg">
<path d="M11.7122 0.0595703C9.21518 4.80581 9.19102 26.9551 11.6393 31.6661C11.1729 31.5128 10.7085 31.3485 10.2498 31.1506C8.23122 30.2698 6.44242 29.0469 4.93206 27.5103C3.424 25.974 2.20782 24.1894 1.31993 22.2056C0.445475 20.2477 0 18.1543 0 15.9826C0 13.6482 0.458707 11.4446 1.36404 9.43277C2.27551 7.39792 3.51413 5.60126 5.05096 4.09531C6.58011 2.58706 8.38694 1.38986 10.4191 0.530934C10.8439 0.351248 11.2778 0.20167 11.7122 0.0595703Z" fill="#010202"/>
<path d="M32 2.88073V3.70724L30.8868 3.89422V31.6903H19.9265V5.24656V0L32 2.88073Z" fill="#010202"/>
</svg>
